<svg width="121" height="51" xmlns="http://www.w3.org/2000/svg" xmlns:xlink="http://www.w3.org/1999/xlink"><defs><path id="a" d="M0 0h42.212v41.374H0z"/><path id="c" d="M0 0h41.864v39.947H0z"/><path id="e" d="M0 0h4.946v4.82H0z"/></defs><g fill="none" fill-rule="evenodd"><path d="M24.78 27.84l1.703 1.218-1.242.963-1.673-1.228 1.212-.953zM12.37 17.56v6.503c0 .251.175.372.525.372h4.7l-.319-.86 1.578-1.3.748 2.16h5.271c-.206-.596-.492-1.046-.859-1.352l1.482-1.695c.651.635.987 1.377.987 2.21 0 .439-.16 1.049-.492 1.803-.209.49-.401.874-.576 1.178h-7.039l-.254-.65-.605.65h-6.31c-.543 0-.844-.17-.908-.529l-.415.529-7.469-.015c-.335 0-.639-.116-.94-.37-.478-.384-.717-.912-.717-1.56 0-.438.177-1.048.557-1.802a5.45 5.45 0 01.765-1.14l-.05.171a3.633 3.633 0 00-.125.902c0 .637.207 1.1.637 1.378.27.186.558.278.843.278l.974.014h5.94v-5.008l2.07-1.867zm-5.577 1.31c.513 0 .766.092.766.277 0 .069-.062.2-.19.399l-.255.396a2.51 2.51 0 00-.813-.13c-.446 0-.81.119-1.084.355.4.36.973.53 1.72.53.273 0 .573-.051.878-.145l-.382.952a5.862 5.862 0 00-1.259.214 4.014 4.014 0 00-1.498.887c.097-.488.303-.887.607-1.164-.497-.094-.75-.346-.75-.755 0-.199.126-.478.397-.836.478-.649 1.101-.98 1.863-.98zm11.137-.053l1.672 1.233-1.226.952-1.706-1.219 1.26-.966zm23.255 5.552h-2.187l-2.976-4.118-.876 1.294L37.1 24.37l-3.308.013c-.365 0-.603-.012-.716-.039-.254-.068-.415-.185-.48-.385-.24.357-.35 1.848-.35 2.068 0 .228.11.374.334.468.127.05.352.078.673.078h3.9l.417-.424.254.424h2.965l.397-2.203zm-1.233 4.016l.894.758.86-.556.65.556.844-.556-.916-.788-.86.586-.685-.586-.787.586zm10.616-.03l-.912-.819-.81.614.896.759.826-.554zm8.238-9.719l-.942-.343c-.477-.174-1.065-.423-1.065-.727l-.59.915-.096.132c-.064.117-.096.197-.096.25 0 .147.159.265.463.331l.468 5.175h-4.18v2.203h4.892l.318-.819c.206-.533.284-.956.27-1.261l-.384-4.931.415.105.527-1.03zm2.859-1.4l-1.523 1.56c.21.676.321 1.1.321 1.272.034.783.034 1.326.045 1.618l.083 2.41c.03.846-.033 1.788-.176 2.807l-.032.225c.462-.728 1.139-1.72 1.314-2.34a7.456 7.456 0 00.206-2.148l-.03-.888c-.018-.541-.018-.887-.033-1.047l-.143-1.378-.032-.276.319-.333-.32-1.482z" fill="#84736C"/><g transform="translate(75.877 .5)"><mask id="b" fill="#fff"><use xlink:href="#a"/></mask><path d="M26.087 8.73c1.386-.007 2.503-1.268 2.496-2.82-.007-1.545-1.132-2.799-2.515-2.79-1.387.006-2.504 1.268-2.496 2.815.008 1.55 1.131 2.8 2.515 2.794M0 5.261c3.477 10.678 11.173 18.11 11.173 18.11S10.74 30.25.056 41.373c10.028-3.493 19.107-9.52 26.344-16.632C34.322 18.416 39.777 8.3 42.212 0 16.307 26.117 0 5.26 0 5.26" fill="#84736C" mask="url(#b)"/></g><g transform="translate(78.768 10.553)"><mask id="d" fill="#fff"><use xlink:href="#c"/></mask><path d="M23.196 9.334c1.405-.004 2.539-1.283 2.532-2.853-.007-1.571-1.15-2.839-2.551-2.833-1.405.006-2.54 1.287-2.531 2.857.006 1.568 1.15 2.84 2.55 2.83M2.05 5.438c5.032 10.334 14.358 15.43 14.358 15.43S15.502 24.853 0 39.947C31.338 29.455 37.48 14.925 41.864 0 18.604 24.181 2.05 5.44 2.05 5.44" fill="#FED40A" mask="url(#d)"/></g><g transform="translate(0 36.268)"><mask id="f" fill="#fff"><use xlink:href="#e"/></mask><path d="M3.114 2.913l-.68-1.789-.665 1.789h1.345zM4.946 4.82H3.863l-.43-1.095h-1.97L1.056 4.82H0L1.92 0h1.052l1.974 4.82z" fill="#84736C" mask="url(#f)"/></g><path fill="#84736C" d="M6.052 41.087v-4.78h.995v3.969h2.475v.811zm8.193-2.1v1.288h.92c.36 0 .587-.01.683-.03a.617.617 0 00.361-.192.581.581 0 00.14-.409.618.618 0 00-.107-.368.607.607 0 00-.312-.22c-.135-.047-.43-.07-.882-.07h-.803zm0-1.917v1.114h.651c.389 0 .63-.005.724-.016a.662.662 0 00.402-.173.502.502 0 00.146-.376.52.52 0 00-.126-.363.581.581 0 00-.375-.17 11.842 11.842 0 00-.85-.016h-.572zm-.996-.802h1.97c.39 0 .681.016.873.048a1.25 1.25 0 01.893.601c.101.168.151.355.151.563a1.148 1.148 0 01-.693 1.046c.3.086.532.231.693.438.162.206.243.448.243.725 0 .22-.053.433-.157.64a1.295 1.295 0 01-.427.497c-.18.124-.403.2-.668.228-.165.018-.566.03-1.2.033H13.25v-4.82zm8.133 2.912l-.68-1.788-.664 1.789h1.344zm1.833 1.907h-1.083l-.43-1.095h-1.97l-.408 1.095H18.27l1.92-4.82h1.052l1.974 4.82zm2.077-2.781h.736c.478 0 .776-.02.895-.06a.533.533 0 00.279-.203.615.615 0 00.1-.362.571.571 0 00-.132-.392.615.615 0 00-.375-.19 8.948 8.948 0 00-.726-.016h-.777v1.223zm-.995 2.781v-4.82h2.094c.527 0 .91.044 1.149.13.238.087.43.241.573.463.144.22.215.474.215.76 0 .36-.109.659-.326.895-.217.235-.542.384-.975.445.215.123.393.257.533.404.14.148.329.409.566.783l.602.94h-1.19l-.72-1.048c-.255-.375-.43-.612-.524-.709a.76.76 0 00-.3-.2c-.104-.037-.272-.055-.5-.055h-.202v2.012h-.995zm5.49 0h.995v-4.82h-.995zm3.486-4.004v3.193h.743c.278 0 .479-.016.602-.047a.924.924 0 00.402-.2c.107-.095.193-.25.26-.465.068-.216.101-.51.101-.883s-.033-.66-.1-.859a1.097 1.097 0 00-.283-.466.958.958 0 00-.46-.227c-.14-.03-.411-.046-.818-.046h-.447zm-.995-.815h1.82c.41 0 .722.03.937.092.29.083.537.23.743.444.206.212.363.472.47.78.108.308.162.688.162 1.14 0 .396-.05.738-.15 1.025-.125.351-.3.635-.529.852a1.758 1.758 0 01-.7.385c-.219.067-.513.101-.88.101h-1.873v-4.82zm8.99 2.719v1.288h.921c.359 0 .586-.01.683-.03a.622.622 0 00.361-.192.584.584 0 00.14-.409.618.618 0 00-.108-.368.605.605 0 00-.31-.22c-.137-.047-.43-.07-.884-.07h-.803zm0-1.917v1.114h.652c.388 0 .629-.005.723-.016a.666.666 0 00.402-.173.5.5 0 00.146-.376.52.52 0 00-.126-.363.578.578 0 00-.375-.17 11.842 11.842 0 00-.85-.016h-.572zm-.995-.802h1.97c.39 0 .68.016.873.048a1.252 1.252 0 01.892.601c.101.168.151.355.151.563 0 .226-.062.434-.186.622a1.16 1.16 0 01-.506.424c.3.086.53.231.692.438.161.206.242.448.242.725 0 .22-.052.433-.156.64a1.297 1.297 0 01-.427.497c-.18.124-.403.2-.667.228-.166.018-.567.03-1.2.033h-1.678v-4.82zm8.132 2.912l-.678-1.788-.666 1.789h1.344zm1.832 1.907h-1.082l-.43-1.095h-1.97l-.407 1.095h-1.056l1.92-4.82h1.053l1.972 4.82zm1.09 0v-4.82h.968l2.017 3.22v-3.22h.925v4.82h-.999l-1.986-3.143v3.143zm5.527 0v-4.82h.995v2.141l2.01-2.14h1.34l-1.857 1.877 1.957 2.942h-1.288l-1.355-2.261-.807.805v1.456zm-13.061-19.7l-1.482 1.696c.368.307.62.69.827 1.286h-3.553l.034 2.21h4.094c.174-.304.367-.688.575-1.178.332-.754.493-1.365.493-1.803 0-.832-.336-1.575-.988-2.21m3.258 1.837l-.948 1.11c.718.693 1.103 1.469 1.412 2.4-1.008 1.977-2.016 2.987-3.6 2.987a4.69 4.69 0 01-1.713-.339c1.176.981 2.16 1.516 2.674 1.516.391 0 .972-.098 1.572-.58 1.5-1.222 2.215-2.276 2.219-3.692 0-.29-.104-.462-.186-.734l.021-.446-.021.412h2.965l.444-1.49h-3.822c-.163-.277-.792-.933-1.017-1.144"/><path d="M50.727 25.256v.714c0 .661.234.6.894.6h2.794l.064-2.203H52.39c-.284 0-.428-.132-.428-.384v-1.819l-1.235.918v1.29" fill="#84736C"/><path d="M47.051 23.225l-.948 1.11c.718.693 1.103 1.469 1.412 2.4-1.008 1.977-2.016 2.987-3.6 2.987a4.69 4.69 0 01-1.713-.339c1.176.981 2.16 1.516 2.674 1.516.391 0 .972-.098 1.572-.58 1.5-1.222 2.215-2.276 2.219-3.692 0-.29-.104-.462-.186-.734l.021-.446-.021.412h2.965l.278-1.49h-3.672c-.164-.277-.776-.933-1.001-1.144" fill="#84736C"/></g></svg>